<?xml version="1.0" standalone="no"?>
<!DOCTYPE svg PUBLIC "-//W3C//DTD SVG 20010904//EN"
 "http://www.w3.org/TR/2001/REC-SVG-20010904/DTD/svg10.dtd">
<svg version="1.0" xmlns="http://www.w3.org/2000/svg"
 width="242.000000pt" height="242.000000pt" viewBox="0 0 242.000000 242.000000"
 preserveAspectRatio="xMidYMid meet">
<metadata>
Created by potrace 1.14, written by Peter Selinger 2001-2017
</metadata>
<g transform="translate(0.000000,242.000000) scale(0.100000,-0.100000)"
fill="#000000" stroke="none">
<path d="M995 1571 c-84 -39 -97 -76 -100 -277 -1 -96 -7 -168 -13 -180 -9
-15 -12 -3 -13 61 -2 77 -3 78 -8 25 -4 -30 -3 -68 1 -84 20 -80 -127 -121
-197 -56 -38 35 -47 80 -46 223 1 158 2 168 27 178 22 9 14 10 -66 13 -41 1
-60 -3 -60 -11 0 -7 6 -10 14 -7 25 10 31 -19 32 -166 0 -80 4 -159 8 -176 8
-35 69 -98 106 -109 101 -31 209 11 242 95 6 14 11 100 13 192 3 188 13 224
73 243 38 13 57 30 22 21 -19 -6 -21 -5 -10 3 8 6 27 11 43 11 15 0 27 5 27
10 0 16 -52 11 -95 -9z"/>
<path d="M1785 1505 c-16 -7 -29 -17 -27 -22 2 -4 -7 -11 -20 -15 -27 -7 -16
-11 28 -8 21 1 41 -7 59 -23 l29 -24 -23 -56 c-13 -31 -22 -59 -22 -62 1 -3
-5 -18 -13 -33 -17 -31 -76 -167 -76 -176 0 -3 5 -6 12 -6 6 0 9 3 5 6 -3 4 2
23 13 43 27 53 120 287 120 301 0 7 -7 18 -17 25 -10 7 -12 14 -6 18 6 4 20
-1 32 -11 l21 -17 -50 -125 c-28 -69 -55 -134 -60 -145 -5 -11 -20 -45 -34
-76 -13 -31 -29 -60 -35 -63 -15 -9 -14 7 1 22 8 8 9 12 1 12 -14 0 -45 -59
-37 -71 3 -5 -6 -9 -20 -9 -14 0 -26 -3 -26 -8 0 -4 25 -7 55 -7 30 0 55 3 55
7 0 5 -8 8 -17 8 -35 0 -1 14 40 16 55 2 55 2 30 19 l-22 15 21 50 c20 48 35
58 73 50 6 -1 27 -2 47 -2 36 1 37 -1 54 -51 59 -182 160 -280 256 -250 l33
11 -43 1 c-23 1 -55 9 -70 18 -35 22 -82 70 -82 83 0 5 -4 10 -9 10 -7 0 -57
117 -75 177 -6 20 -13 21 -81 19 -41 -2 -75 1 -75 6 0 4 40 8 88 8 l89 0 12
-42 c54 -181 165 -289 269 -262 32 9 27 24 -9 24 -39 0 -67 15 -102 54 -41 45
-68 102 -131 279 -69 194 -89 236 -127 265 -34 28 -91 35 -134 17z m179 -210
c30 -93 31 -95 11 -95 -8 0 -19 17 -25 41 -6 23 -16 53 -22 68 -15 36 -18 54
-12 70 8 23 19 2 48 -84z m-34 -76 c0 -15 -7 -19 -40 -19 -22 0 -40 4 -40 9 0
4 10 32 21 60 l22 52 18 -42 c11 -23 19 -50 19 -60z"/>
<path d="M50 1444 c0 -24 5 -44 10 -44 6 0 10 4 10 9 0 5 26 8 57 7 l57 -1 -1
-180 c-2 -188 -7 -245 -23 -245 -6 0 -10 -4 -10 -8 0 -5 29 -8 65 -8 49 1 64
4 60 13 -2 8 3 13 14 13 28 0 33 12 8 24 -22 11 -22 15 -22 201 l0 190 48 1
c42 2 49 -1 62 -25 l15 -26 -2 30 c-3 29 -4 30 -68 36 -65 6 -53 10 27 11 46
0 63 -7 63 -27 0 -8 5 -17 10 -20 6 -4 10 11 10 38 l0 45 -146 -3 c-80 -2
-167 0 -195 4 l-49 8 0 -43z m166 -207 c1 -108 -2 -200 -6 -202 -4 -3 -10 13
-12 35 -2 22 1 40 6 40 6 0 6 4 -1 11 -6 6 -7 25 -3 48 4 20 4 45 1 54 -4 10
-4 47 -1 82 3 36 3 65 -1 65 -3 0 -4 14 -1 30 l4 30 -63 1 c-41 1 -55 3 -40 8
14 3 45 4 70 1 l46 -5 1 -198z"/>
<path d="M1054 1468 c-5 -8 -3 -9 16 -12 28 -3 32 -29 32 -216 0 -106 -4 -196
-9 -201 -5 -5 -8 74 -8 179 1 113 -3 194 -9 205 -6 9 -22 17 -36 17 -24 -1
-24 -1 -5 -12 11 -6 23 -16 27 -22 11 -17 7 -386 -4 -386 -6 0 -8 -7 -4 -15 3
-10 -1 -15 -12 -15 -14 -1 -15 -2 -2 -9 23 -12 240 -7 248 6 4 6 16 12 26 14
13 3 25 22 38 58 21 62 18 76 -7 33 -10 -16 -27 -34 -38 -41 -28 -18 -144 -24
-149 -8 -8 22 -3 372 5 385 5 6 5 12 0 12 -4 1 3 7 17 15 28 16 29 16 -58 18
-35 1 -66 -1 -68 -5z"/>
<path d="M1454 1470 c-12 -5 -10 -9 10 -18 l26 -12 0 -201 c0 -111 -3 -199 -7
-195 -5 4 -8 87 -9 184 -1 218 -2 224 -54 212 -3 0 4 -7 15 -15 18 -14 19 -29
21 -207 1 -175 0 -193 -17 -212 -11 -11 -19 -23 -19 -26 0 -4 30 -6 68 -6 46
1 66 5 64 14 -1 7 7 12 18 12 26 0 26 17 0 25 -24 8 -22 -9 -24 205 -2 173 6
230 31 230 7 0 13 3 13 8 0 8 -113 10 -136 2z"/>
<path d="M18 1416 c-3 -14 -1 -31 3 -38 6 -8 9 1 9 25 0 42 -6 48 -12 13z"/>
<path d="M500 1433 c8 -3 21 -12 27 -21 15 -18 28 -10 20 13 -4 9 -18 15 -34
14 -15 0 -21 -3 -13 -6z"/>
<path d="M866 1414 c-4 -14 -5 -28 -3 -31 3 -2 8 8 11 23 4 14 5 28 3 31 -3 2
-8 -8 -11 -23z"/>
<path d="M532 1254 c-3 -153 6 -199 45 -235 33 -31 117 -66 111 -47 -3 7 -14
15 -25 18 -30 8 -72 41 -93 75 -16 26 -19 54 -22 178 -2 81 -5 147 -8 147 -3
0 -6 -61 -8 -136z"/>
</g>
</svg>
